<svg version="1" xmlns="http://www.w3.org/2000/svg" width="5333.333" height="5333.333" viewBox="0 0 4000.000000 4000.000000"><path d="M815 2000.7V3459h2371l-5.9-9.3c-3.3-5-15.2-23.8-26.4-41.7-11.3-17.9-20.9-33-21.4-33.6-.4-.5-1.3-1.9-1.9-3-.6-1-11.4-18.1-23.9-37.9-26.2-41.5-23.9-37.9-38.7-61-3.5-5.5-6.7-10.7-7.1-11.5-.4-.8-3.4-5.6-6.7-10.5-3.3-5-6.3-9.7-6.7-10.5-.4-.8-3.3-5.5-6.5-10.3-3.2-4.9-5.8-9-5.8-9.2 0-.2-3.6-5.9-8-12.7-4.4-6.7-9.8-15.2-12-18.8-5.5-8.9-6.1-9.8-9.5-15-1.6-2.6-4.6-7.2-6.5-10.4-1.9-3.2-5.3-8.5-7.5-12-2.2-3.4-4.5-7.1-5.2-8.2-.7-1-5.2-8.1-10-15.7-12.2-19.1-12-18.8-14.3-22.7-1.1-1.9-3.7-6.1-5.8-9.3-2-3.1-9.7-15.3-17.1-27-7.4-11.6-15.3-24.1-17.6-27.7-4.4-6.9-11.2-17.6-19-30-2.6-4.1-7.5-11.8-10.9-17.2-3.3-5.3-9.2-14.5-12.9-20.5-3.8-5.9-16.6-26.2-28.5-45-12-18.8-22.9-36.1-24.3-38.5-3-4.8-36.3-57.5-37.9-59.8-.5-.8-16.4-25.8-35.1-55.5-32-50.5-38.1-60.2-46.1-73-1.8-2.8-5.9-9.3-9.2-14.6-3.4-5.2-6.6-10.4-7.3-11.5-.7-1-5.2-8.2-10.1-15.9-4.9-7.7-15.5-24.6-23.7-37.5-8.1-12.9-17.1-27.1-19.9-31.5-5.8-8.9-19.3-30.2-21.6-34-.8-1.4-6.2-9.9-12-19s-11.2-17.6-12-19c-2.1-3.4-12.7-20.2-29.1-46-7.7-12.1-15.8-24.9-18-28.5-4.1-6.7-74.1-117.3-75.9-120-.5-.8-4-6.2-7.6-12-3.6-5.8-7.6-12.1-8.9-14-6.9-10.6-10.5-16.6-10.4-17.5 0-.6 2.3-1.6 5.2-2.4 2.9-.7 11.5-3.1 19.2-5.3 7.7-2.1 14.8-4.1 15.8-4.3 3-.7 21-6.3 42.7-13.3 31-9.9 57.3-19.5 89.5-32.5 14.8-6 20.5-8.5 32.5-13.9 2.5-1.1 7.9-3.5 12-5.4 14.3-6.3 56.6-27.8 75.5-38.4 24.9-13.9 62-37.5 80.5-51.1 3.6-2.7 8.5-6.3 11-8.1 4.7-3.4 25-19.1 28.5-22 51.5-42.9 89.3-82.1 123.2-127.3 4.1-5.5 8-10.7 8.6-11.6 6.1-8 24.2-35.4 31.6-47.7 6.5-10.9 7.3-12.2 15.4-26.7 8.1-14.5 23.8-46.8 30.6-63 3.5-8.3 6.7-15.9 7.2-17 14.3-34.1 30.3-85.7 39.9-129.5 1.1-5.2 2.5-11.3 3.1-13.5.5-2.2 1.2-5.4 1.5-7 .2-1.7.7-4.1 1-5.5.3-1.4.8-3.6 1-5 .3-1.4 1.1-6.1 1.9-10.5 1.6-9.1 2-11.2 3.5-21 .6-3.9 1.3-8.1 1.5-9.5.3-2.2 1.5-10.7 3.1-23 .2-1.9.7-4.9.9-6.7.3-1.7.8-5.8 1-9 .3-3.2.7-7.2 1-8.9.2-1.7.7-6.8 1-11.5.3-4.6.8-9.8 1-11.4.2-1.7.7-7.7 1-13.5.4-5.8.8-12.1 1-14 1.9-19.2 2.6-101.8 1.1-132.5-1.4-30.5-2.1-42-4.1-62-.2-2.2-.7-7.2-1-11-.4-3.9-.8-8-1-9.3-.2-1.3-.7-5.3-1-9-.4-3.7-.8-7.4-1-8.2-.2-.8-.7-4.2-1-7.5-.4-3.3-1.3-9.7-2-14.1-.8-4.5-1.7-10.3-2-13-.4-2.7-.8-5.6-1.1-6.5-.3-.9-.7-3.4-1-5.5-.2-2.2-.6-4.6-.9-5.4-.2-.8-.7-3.3-1.1-5.5-.7-4.6-6.7-33.8-8.4-40.5-.6-2.5-1.2-5.2-1.4-6-2.4-9.7-6.9-27.2-7.6-29.5-.6-1.7-3.3-10.7-6.1-20-8.3-28-22.8-66.8-33.8-90.9-9.5-20.7-25.5-51.7-31.2-60.7-1.6-2.5-2.9-4.9-2.9-5.2 0-.6-5.2-9-11-17.7-.9-1.4-2.7-4.4-4-6.8-1.3-2.3-2.7-4.2-3.2-4.2-.4 0-.8-.5-.8-1 0-1.5-20.2-30-28.9-41-2-2.4-4.3-5.4-5.2-6.5-33-41-72-79.2-113.4-110.8-5.5-4.2-10.4-8-11-8.5-5.9-4.6-31.1-21.9-46.5-31.7-11.6-7.4-11.1-7.1-22.7-13.6-2.1-1.2-4.2-2.5-4.8-2.9-1-.8-3.9-2.4-21-11.7-55.2-29.9-126.3-58.2-199-79.1-22.8-6.6-75.8-20-89.5-22.6-1.4-.3-3.6-.8-5-1.1-1.4-.3-3.4-.8-4.5-1-1.1-.1-6.6-1.2-12.3-2.4-5.6-1.1-11.7-2.3-13.5-2.6-1.7-.3-3.9-.8-4.8-1.1-1-.2-3-.7-4.5-.9-1.6-.2-9.4-1.6-17.4-3-8-1.4-16.1-2.8-18-3.1-1.9-.3-8.9-1.4-15.5-2.5s-13.8-2.2-16-2.5c-3.8-.5-13.2-1.8-20.5-2.8-4.5-.7-26.4-3.6-31-4.1-10.3-1.2-14.7-1.7-17-2-1.4-.2-5.9-.7-10-1-4.1-.4-8.2-.8-9-1-.9-.2-5.2-.6-9.5-.9-4.4-.4-8.7-.8-9.5-1.1-.8-.2-5.3-.7-10-1-4.7-.3-9.8-.8-11.5-1-1.6-.3-6.4-.7-10.5-.9-4.1-.3-10.2-.7-13.5-1-3.3-.3-9.6-.8-14-1.1-4.4-.3-10-.8-12.5-1-2.5-.2-9.4-.6-15.5-1-6-.3-13.9-.8-17.5-1.1-6.1-.4-12.3-.7-36-1.9-9.3-.5-25.9-1.2-47.3-2-5.9-.2-22.1-.7-36-1-13.9-.4-32.4-.9-41.2-1.2-8.8-.2-274.9-.5-591.2-.7l-575.3-.2v1458.3z"/></svg>