<svg version="1" xmlns="http://www.w3.org/2000/svg" width="804" height="804" viewBox="0 0 603.000000 603.000000"><path d="M116 302v227.7h371l-2-3.1c-1.1-1.7-3.9-6-6.1-9.6-2.3-3.6-5.7-9.1-7.7-12.2-7.2-11.3-24.7-38.9-26.2-41.4-.8-1.3-6.4-10.2-12.5-19.6-6-9.5-11.2-17.7-11.4-18.2-.2-.6-.8-1.5-1.3-2.1-.7-.8-11.7-18-26.6-41.8-2.1-3.2-7.4-11.7-11.9-18.8-4.6-7.1-8.3-13.4-8.3-13.9 0-.6-.4-1-1-1-.5 0-1-.5-1-1 0-1.2 2-2.1 12-5.1 4.1-1.2 8.2-2.6 9-3 .8-.4 5.5-2.4 10.5-4.5 15.8-6.8 29.6-15.9 40.9-27.1 18.8-18.5 29.7-41.6 34-72 1.4-9.7 1.5-41.2.2-49.8-2.2-14.3-5.4-25.8-10.2-36.9-3.2-7.2-10.9-20.3-13.7-23.1-.7-.6-2.6-2.7-4.2-4.6-4.1-4.6-16.2-15.1-20.5-17.7-18.7-11.4-41.5-19.6-65.5-23.6-13.1-2.2-15.1-2.4-24.5-3.2-4.7-.3-9.6-.8-11-1.1-1.4-.2-49.6-.6-107.2-.8L116 74.2V302z"/></svg>